<?xml version="1.0" encoding="UTF-8"?>
<svg id="Layer_2" data-name="Layer 2" xmlns="http://www.w3.org/2000/svg" viewBox="0 0 407.54 407.54">
  <defs>
    <style>
      .cls-1 {
        fill: #41bcbf;
      }

      .cls-1, .cls-2 {
        stroke-width: 0px;
      }

      .cls-2 {
        fill: #0096d7;
      }
    </style>
  </defs>
  <g id="Layer_1-2" data-name="Layer 1">
    <circle class="cls-1" cx="203.77" cy="203.77" r="203.75" transform="translate(-84.4 203.77) rotate(-45)"/>
    <g>
      <g>
        <path class="cls-2" d="m62.61,132.3c.5-3.24,1-6.51,1.5-9.79.27-1.74-.55-1.97-1.77-1.48-1.76.71-3.25,1.85-5,2.57-6.31,2.57-9.84-1.63-9.85-12.95.01-12.09,4.31-21.25,12.68-26.25,3.92-2.29,7.61-3.39,11.19-5.25,4-2.07,7.61-4.82,12.1-6.92,6.17-2.93,12.03-.24,12.03,10.6,0,11.91-5.97,32.14-5.97,46.59,0,8.96,3.67,12.77,9.68,11.66,11.19-1.95,17.37-17.86,17.36-31.04,0-2.79-1.17-4.03-2.48-3.73-1.46.34-2.91,2.16-5.66,2.82-4.2.98-8.5-3.65-8.5-15.13.02-17.5,7.11-32.14,22.05-36.87,17.19-5.23,26.55,9.17,26.53,34.05.17,41.45-18.12,91.1-56.43,92.95-22.28.93-35.22-13.65-29.46-51.86Z"/>
        <path class="cls-2" d="m144.79,119.22c-.02-39.84,22.22-75.71,53.27-76.88,22.96-.49,37.2,14.62,37.19,38.55.02,25.2-20.47,39.41-46.15,40.28-2.58.08-5.16-.05-7.73-.17,2.58,8.73,8.04,12.49,15.93,12.38,15.2-.13,18.69-8.64,27.65-8.39,5.61.2,9.4,6.68,9.4,16.88.02,20.81-18.95,34.32-42.96,34.61-29.93.12-46.59-20.18-46.59-57.26Zm40.67-22.17c8.49-.42,17.16-3.52,17.16-12.41,0-4.91-2.89-8.41-6.99-8.3-7.75.22-13.51,8.1-15.48,20.54,1.67.13,3.49.26,5.31.18Z"/>
        <path class="cls-2" d="m302.89,61.16c11.73,4.31,20.31,17.67,20.32,32.81,0,17.55-8.05,24.26-15.84,22.52-11.12-2.52-11.88-13.98-20.09-15.8-4.41-.93-7.96,2.13-9.44,14.31-2.52,21.1-2.96,32.46-4,41.26-2.08,17.39-9.05,23.82-20.92,23.47-11.58-.33-15.84-8.73-15.83-20.33,0-9.28,3.33-20.25,4.53-30.33.76-6.42,1.51-12.83,2.26-19.22.9-7.07.45-10.8-3.17-11.11-1.81-.15-3.48.42-5.6.27-5.14-.35-10.61-8.29-10.61-22.76,0-18.41,5.17-30.13,15.9-28.86,4.38.54,7.85,3.07,13.71,4.03,4.81.81,7.95-.64,13.02.44,6.86,1.52,9.66,8.5,9.66,18.88,0,4.43-.89,13.55-2.22,18.19.54.1,1.09.21,1.63.31,6.06-26.52,13.63-32.69,26.68-28.07Z"/>
        <path class="cls-2" d="m286.01,208.61c0-14.01,5.47-22.95,14.9-22.37,10.27.68,15.02,13.21,26.71,13.49,10.94.38,17.06-7.18,22.08-26.83-.36-.06-.72-.12-1.08-.18-3.63,9.43-14.79,11.28-20.44,10.79-13.91-1.08-21.8-13.48-21.77-34.08,0-8.54,2.17-22.03,5.61-38.38.43-1.73-.57-2.62-1.87-2.98-1.87-.51-3.45-.3-5.33-.77-6.79-1.67-10.75-10.02-10.75-24.66,0-15.69,4.85-22.21,13.78-18.82,4.18,1.58,8.03,4.15,11.72,5.71,4.12,1.75,7.78,2.41,12.25,4.57,6.15,3.01,11.75,10.71,11.75,20.43.02,11.14-8.53,28.98-8.55,41.31,0,7.28,2.37,11.46,6.08,12.36,9.61,2.31,13.45-9.94,15.86-31.51,1.56-19.18,4.39-26.56,17.44-17.22,8.61,6.29,13.26,12.98,13.28,20.29,0,6.77-4.11,9.69-5.26,19-1.39,11.19-2.15,22.93-3.67,33.96-4.9,33.05-14.13,59.02-59.19,64.17-24.09,2.13-33.64-13.36-33.57-28.27Z"/>
      </g>
      <g>
        <path class="cls-2" d="m27.56,303.9c0-7.13,1.87-9.99,6.46-40.54,4.61-31.41,4.89-34.15,4.88-34.7,0-2.39-.91-3.59-2.96-3.79-1.28-.12-2.56.21-3.83.07-4.2-.51-8.42-5.3-8.42-14.19,0-11.63,6.18-19.29,14.05-20.46,4.91-.63,7.65-.13,12.68-.67,5.58-.59,8.01-2.07,12.75-2.57,5.17-.55,6.98,3.96,6.97,9,0,7-2.21,14.53-5.75,44.19.41.05.82.11,1.23.16,5.46-4.04,11.94-5.98,20.25-5.3,21.6,1.27,35,28.41,34.95,56.65.03,41.88-20.08,65.02-42.1,53.52-13.21-6.56-18.95-15.17-24.98-26.72-.13-.07-.27-.15-.4-.22-4.67,7.95-10.05,6.48-14.31,3.49-9.66-6.99-11.44-13.31-11.47-17.94Zm44.37,5.67c9.52,3.84,15.64-3.75,15.63-18.73,0-11.2-5.11-20.7-13.56-22.49-9.4-1.98-15.15,5-15.16,18,0,11.07,4.82,19.87,13.09,23.22Z"/>
        <path class="cls-2" d="m171.69,349.67c-.2-.02-.4-.04-.6-.06-6.04,18.6-16.61,23-28.68,20.25-23.96-6.02-35.09-36.87-35.12-62.77,0-39.62,18-64.54,43.03-64.06,10.32.4,22.72,7.62,26.96,22.64.15,0,.3,0,.45.02,3.78-18.46,9.85-21.65,17.9-21.59,9.57.06,14.28,6.11,14.28,16.18,0,10.77-4.86,23.43-6.38,33.02-1.98,12.17-5.01,29.22-5.01,34.13,0,3.51,0,6.57,3.95,6.61,2.89.03,5.77-3.74,7.14-11.71,1.67-10.33,4.41-16.63,12.61-16.88,7.59-.25,11.07,6.95,11.07,16.01,0,30.58-11.51,56.8-37.35,56.22-13.22-.45-23.8-9.51-24.25-28Zm-16.57-15.3c10.36,1.44,16.88-9.18,16.87-26.55,0-12.99-5.45-23.19-14.62-23.86-10.22-.74-16.6,9.28-16.6,25.79,0,14.04,5.35,23.35,14.35,24.62Z"/>
        <path class="cls-2" d="m205.11,319.53c-.03-47.3,21.37-76.33,48.9-77.15,6.31-.21,14.68,1.73,20.17,5.85.4-.02.79-.05,1.19-.07.74-3.82,1.63-9.41,2.22-13.2-2.52.1-5.04.2-7.57.29-6.1.25-11.8-7.31-11.8-21.67,0-18.01,7.21-27.6,16.11-27.22,3.71.14,6.37,1.13,9.91,1.27,6.04.23,12.17-1.61,16.23-1.38,6.38.38,9.24,4.7,9.24,11.5.03,6.61-13.43,112.08-13.46,119.87,0,3.63.88,5.35,3.78,4.6,2.76-.72,5.5-4.84,6.8-12.25,1.58-9.6,4.2-15.69,11.88-17.54,7.1-1.71,10.3,3.6,10.3,11.18-.05,25.36-10.62,51.55-33.79,59.85-12.4,4.17-22.54-.86-23.13-18.44-.2.04-.4.08-.6.12-5.94,19.74-16.56,28.67-27.43,30.11-23.26,3.15-38.98-21.43-38.96-55.73Zm49.65,15.04c10.36-1.44,16.74-13.41,16.74-30.1,0-12.48-5.34-21.47-14.49-20.75-10.2.8-16.72,12.21-16.71,29.36,0,14.57,5.45,22.7,14.46,21.49Z"/>
      </g>
    </g>
  </g>
</svg>